<mxfile host="app.diagrams.net" modified="2022-01-26T04:25:43.823Z" agent="5.0 (Windows NT 10.0; Win64; x64) AppleWebKit/537.36 (KHTML, like Gecko) Chrome/97.0.4692.71 Safari/537.36" etag="BO-oqNw-kou7rYsXvxFX" version="16.4.6" type="github">
  <diagram id="C5RBs43oDa-KdzZeNtuy" name="Page-1">
    <mxGraphModel dx="2274" dy="750" grid="1" gridSize="10" guides="1" tooltips="1" connect="1" arrows="1" fold="1" page="1" pageScale="1" pageWidth="827" pageHeight="1169" math="0" shadow="0">
      <root>
        <mxCell id="WIyWlLk6GJQsqaUBKTNV-0" />
        <mxCell id="WIyWlLk6GJQsqaUBKTNV-1" parent="WIyWlLk6GJQsqaUBKTNV-0" />
        <mxCell id="fCfzAJUnGEmRyO72Ko-0-2" value="" style="edgeStyle=orthogonalEdgeStyle;rounded=0;orthogonalLoop=1;jettySize=auto;html=1;" edge="1" parent="WIyWlLk6GJQsqaUBKTNV-1" source="fCfzAJUnGEmRyO72Ko-0-0" target="fCfzAJUnGEmRyO72Ko-0-1">
          <mxGeometry relative="1" as="geometry" />
        </mxCell>
        <mxCell id="fCfzAJUnGEmRyO72Ko-0-4" value="" style="edgeStyle=orthogonalEdgeStyle;rounded=0;orthogonalLoop=1;jettySize=auto;html=1;" edge="1" parent="WIyWlLk6GJQsqaUBKTNV-1" source="fCfzAJUnGEmRyO72Ko-0-0" target="fCfzAJUnGEmRyO72Ko-0-3">
          <mxGeometry relative="1" as="geometry" />
        </mxCell>
        <mxCell id="fCfzAJUnGEmRyO72Ko-0-6" value="" style="edgeStyle=orthogonalEdgeStyle;rounded=0;orthogonalLoop=1;jettySize=auto;html=1;" edge="1" parent="WIyWlLk6GJQsqaUBKTNV-1" source="fCfzAJUnGEmRyO72Ko-0-0" target="fCfzAJUnGEmRyO72Ko-0-5">
          <mxGeometry relative="1" as="geometry" />
        </mxCell>
        <mxCell id="fCfzAJUnGEmRyO72Ko-0-0" value="START" style="rhombus;whiteSpace=wrap;html=1;" vertex="1" parent="WIyWlLk6GJQsqaUBKTNV-1">
          <mxGeometry x="360" y="100" width="80" height="80" as="geometry" />
        </mxCell>
        <mxCell id="fCfzAJUnGEmRyO72Ko-0-1" value="MEDIUM" style="rounded=1;whiteSpace=wrap;html=1;" vertex="1" parent="WIyWlLk6GJQsqaUBKTNV-1">
          <mxGeometry x="340" y="280" width="120" height="60" as="geometry" />
        </mxCell>
        <mxCell id="fCfzAJUnGEmRyO72Ko-0-3" value="SMALL" style="rounded=1;whiteSpace=wrap;html=1;" vertex="1" parent="WIyWlLk6GJQsqaUBKTNV-1">
          <mxGeometry x="60" y="280" width="120" height="60" as="geometry" />
        </mxCell>
        <mxCell id="fCfzAJUnGEmRyO72Ko-0-5" value="LARGE" style="rounded=1;whiteSpace=wrap;html=1;" vertex="1" parent="WIyWlLk6GJQsqaUBKTNV-1">
          <mxGeometry x="620" y="280" width="120" height="60" as="geometry" />
        </mxCell>
        <mxCell id="fCfzAJUnGEmRyO72Ko-0-7" value="Pizza Size" style="text;html=1;align=center;verticalAlign=middle;resizable=0;points=[];autosize=1;strokeColor=none;fillColor=none;" vertex="1" parent="WIyWlLk6GJQsqaUBKTNV-1">
          <mxGeometry x="114" y="117" width="70" height="20" as="geometry" />
        </mxCell>
        <mxCell id="fCfzAJUnGEmRyO72Ko-0-8" value="Pizza Size" style="text;html=1;align=center;verticalAlign=middle;resizable=0;points=[];autosize=1;strokeColor=none;fillColor=none;" vertex="1" parent="WIyWlLk6GJQsqaUBKTNV-1">
          <mxGeometry x="400" y="220" width="70" height="20" as="geometry" />
        </mxCell>
        <mxCell id="fCfzAJUnGEmRyO72Ko-0-9" value="Pizza Size" style="text;html=1;align=center;verticalAlign=middle;resizable=0;points=[];autosize=1;strokeColor=none;fillColor=none;" vertex="1" parent="WIyWlLk6GJQsqaUBKTNV-1">
          <mxGeometry x="620" y="117" width="70" height="20" as="geometry" />
        </mxCell>
        <mxCell id="fCfzAJUnGEmRyO72Ko-0-10" value="$15" style="text;html=1;align=center;verticalAlign=middle;resizable=0;points=[];autosize=1;strokeColor=none;fillColor=none;" vertex="1" parent="WIyWlLk6GJQsqaUBKTNV-1">
          <mxGeometry x="140" y="260" width="40" height="20" as="geometry" />
        </mxCell>
        <mxCell id="fCfzAJUnGEmRyO72Ko-0-11" value="$20" style="text;html=1;align=center;verticalAlign=middle;resizable=0;points=[];autosize=1;strokeColor=none;fillColor=none;" vertex="1" parent="WIyWlLk6GJQsqaUBKTNV-1">
          <mxGeometry x="420" y="260" width="40" height="20" as="geometry" />
        </mxCell>
        <mxCell id="fCfzAJUnGEmRyO72Ko-0-12" value="$25" style="text;html=1;align=center;verticalAlign=middle;resizable=0;points=[];autosize=1;strokeColor=none;fillColor=none;" vertex="1" parent="WIyWlLk6GJQsqaUBKTNV-1">
          <mxGeometry x="700" y="260" width="40" height="20" as="geometry" />
        </mxCell>
        <mxCell id="fCfzAJUnGEmRyO72Ko-0-15" value="" style="edgeStyle=orthogonalEdgeStyle;rounded=0;orthogonalLoop=1;jettySize=auto;html=1;" edge="1" parent="WIyWlLk6GJQsqaUBKTNV-1" source="fCfzAJUnGEmRyO72Ko-0-13" target="fCfzAJUnGEmRyO72Ko-0-14">
          <mxGeometry relative="1" as="geometry" />
        </mxCell>
        <mxCell id="fCfzAJUnGEmRyO72Ko-0-18" value="" style="edgeStyle=orthogonalEdgeStyle;rounded=0;orthogonalLoop=1;jettySize=auto;html=1;" edge="1" parent="WIyWlLk6GJQsqaUBKTNV-1" source="fCfzAJUnGEmRyO72Ko-0-13" target="fCfzAJUnGEmRyO72Ko-0-17">
          <mxGeometry relative="1" as="geometry" />
        </mxCell>
        <mxCell id="fCfzAJUnGEmRyO72Ko-0-13" value="Add&lt;br&gt;Pepperoni for &lt;br&gt;Small Pizza" style="rhombus;whiteSpace=wrap;html=1;" vertex="1" parent="WIyWlLk6GJQsqaUBKTNV-1">
          <mxGeometry x="150" y="520" width="100" height="110" as="geometry" />
        </mxCell>
        <mxCell id="fCfzAJUnGEmRyO72Ko-0-14" value="Nothing" style="rounded=1;whiteSpace=wrap;html=1;" vertex="1" parent="WIyWlLk6GJQsqaUBKTNV-1">
          <mxGeometry x="-20" y="680" width="120" height="60" as="geometry" />
        </mxCell>
        <mxCell id="fCfzAJUnGEmRyO72Ko-0-16" value="NO" style="text;html=1;align=center;verticalAlign=middle;resizable=0;points=[];autosize=1;strokeColor=none;fillColor=none;" vertex="1" parent="WIyWlLk6GJQsqaUBKTNV-1">
          <mxGeometry x="34" y="554" width="30" height="20" as="geometry" />
        </mxCell>
        <mxCell id="fCfzAJUnGEmRyO72Ko-0-17" value="+$2" style="rounded=1;whiteSpace=wrap;html=1;" vertex="1" parent="WIyWlLk6GJQsqaUBKTNV-1">
          <mxGeometry x="340" y="680" width="120" height="60" as="geometry" />
        </mxCell>
        <mxCell id="fCfzAJUnGEmRyO72Ko-0-19" value="YES" style="text;html=1;align=center;verticalAlign=middle;resizable=0;points=[];autosize=1;strokeColor=none;fillColor=none;" vertex="1" parent="WIyWlLk6GJQsqaUBKTNV-1">
          <mxGeometry x="371" y="554" width="40" height="20" as="geometry" />
        </mxCell>
        <mxCell id="fCfzAJUnGEmRyO72Ko-0-20" value="" style="endArrow=classic;html=1;rounded=0;exitX=0.5;exitY=1;exitDx=0;exitDy=0;entryX=0.5;entryY=0;entryDx=0;entryDy=0;" edge="1" parent="WIyWlLk6GJQsqaUBKTNV-1" source="fCfzAJUnGEmRyO72Ko-0-3" target="fCfzAJUnGEmRyO72Ko-0-13">
          <mxGeometry width="50" height="50" relative="1" as="geometry">
            <mxPoint x="380" y="530" as="sourcePoint" />
            <mxPoint x="430" y="480" as="targetPoint" />
            <Array as="points">
              <mxPoint x="120" y="450" />
              <mxPoint x="200" y="450" />
            </Array>
          </mxGeometry>
        </mxCell>
        <mxCell id="fCfzAJUnGEmRyO72Ko-0-25" value="" style="edgeStyle=orthogonalEdgeStyle;rounded=0;orthogonalLoop=1;jettySize=auto;html=1;" edge="1" parent="WIyWlLk6GJQsqaUBKTNV-1" source="fCfzAJUnGEmRyO72Ko-0-21" target="fCfzAJUnGEmRyO72Ko-0-24">
          <mxGeometry relative="1" as="geometry" />
        </mxCell>
        <mxCell id="fCfzAJUnGEmRyO72Ko-0-28" value="" style="edgeStyle=orthogonalEdgeStyle;rounded=0;orthogonalLoop=1;jettySize=auto;html=1;" edge="1" parent="WIyWlLk6GJQsqaUBKTNV-1" source="fCfzAJUnGEmRyO72Ko-0-21" target="fCfzAJUnGEmRyO72Ko-0-27">
          <mxGeometry relative="1" as="geometry" />
        </mxCell>
        <mxCell id="fCfzAJUnGEmRyO72Ko-0-21" value="Add&lt;br&gt;Pepperoni &lt;br&gt;for Medium &lt;br&gt;or &lt;br&gt;Large Pizza" style="rhombus;whiteSpace=wrap;html=1;" vertex="1" parent="WIyWlLk6GJQsqaUBKTNV-1">
          <mxGeometry x="707" y="530" width="120" height="130" as="geometry" />
        </mxCell>
        <mxCell id="fCfzAJUnGEmRyO72Ko-0-22" value="" style="endArrow=classic;html=1;rounded=0;exitX=0.5;exitY=1;exitDx=0;exitDy=0;entryX=0.192;entryY=0.308;entryDx=0;entryDy=0;entryPerimeter=0;" edge="1" parent="WIyWlLk6GJQsqaUBKTNV-1" source="fCfzAJUnGEmRyO72Ko-0-1" target="fCfzAJUnGEmRyO72Ko-0-21">
          <mxGeometry width="50" height="50" relative="1" as="geometry">
            <mxPoint x="500" y="500" as="sourcePoint" />
            <mxPoint x="690" y="565" as="targetPoint" />
            <Array as="points">
              <mxPoint x="400" y="420" />
              <mxPoint x="500" y="420" />
              <mxPoint x="500" y="480" />
              <mxPoint x="730" y="480" />
            </Array>
          </mxGeometry>
        </mxCell>
        <mxCell id="fCfzAJUnGEmRyO72Ko-0-23" value="" style="endArrow=classic;html=1;rounded=0;exitX=0.5;exitY=1;exitDx=0;exitDy=0;entryX=1;entryY=0;entryDx=0;entryDy=0;" edge="1" parent="WIyWlLk6GJQsqaUBKTNV-1" source="fCfzAJUnGEmRyO72Ko-0-5" target="fCfzAJUnGEmRyO72Ko-0-21">
          <mxGeometry width="50" height="50" relative="1" as="geometry">
            <mxPoint x="742" y="430" as="sourcePoint" />
            <mxPoint x="900" y="560" as="targetPoint" />
            <Array as="points">
              <mxPoint x="680" y="390" />
              <mxPoint x="810" y="390" />
              <mxPoint x="810" y="470" />
              <mxPoint x="810" y="520" />
              <mxPoint x="810" y="563" />
            </Array>
          </mxGeometry>
        </mxCell>
        <mxCell id="fCfzAJUnGEmRyO72Ko-0-24" value="Nothing Happen" style="rounded=1;whiteSpace=wrap;html=1;" vertex="1" parent="WIyWlLk6GJQsqaUBKTNV-1">
          <mxGeometry x="540" y="680" width="120" height="60" as="geometry" />
        </mxCell>
        <mxCell id="fCfzAJUnGEmRyO72Ko-0-26" value="NO" style="text;html=1;align=center;verticalAlign=middle;resizable=0;points=[];autosize=1;strokeColor=none;fillColor=none;" vertex="1" parent="WIyWlLk6GJQsqaUBKTNV-1">
          <mxGeometry x="593" y="574" width="30" height="20" as="geometry" />
        </mxCell>
        <mxCell id="fCfzAJUnGEmRyO72Ko-0-27" value="+$3" style="rounded=1;whiteSpace=wrap;html=1;" vertex="1" parent="WIyWlLk6GJQsqaUBKTNV-1">
          <mxGeometry x="890" y="680" width="120" height="60" as="geometry" />
        </mxCell>
        <mxCell id="fCfzAJUnGEmRyO72Ko-0-29" value="YES" style="text;html=1;align=center;verticalAlign=middle;resizable=0;points=[];autosize=1;strokeColor=none;fillColor=none;" vertex="1" parent="WIyWlLk6GJQsqaUBKTNV-1">
          <mxGeometry x="922" y="574" width="40" height="20" as="geometry" />
        </mxCell>
        <mxCell id="fCfzAJUnGEmRyO72Ko-0-37" value="" style="edgeStyle=orthogonalEdgeStyle;rounded=0;orthogonalLoop=1;jettySize=auto;html=1;" edge="1" parent="WIyWlLk6GJQsqaUBKTNV-1" source="fCfzAJUnGEmRyO72Ko-0-30" target="fCfzAJUnGEmRyO72Ko-0-36">
          <mxGeometry relative="1" as="geometry" />
        </mxCell>
        <mxCell id="fCfzAJUnGEmRyO72Ko-0-41" value="" style="edgeStyle=orthogonalEdgeStyle;rounded=0;orthogonalLoop=1;jettySize=auto;html=1;" edge="1" parent="WIyWlLk6GJQsqaUBKTNV-1" source="fCfzAJUnGEmRyO72Ko-0-30" target="fCfzAJUnGEmRyO72Ko-0-40">
          <mxGeometry relative="1" as="geometry" />
        </mxCell>
        <mxCell id="fCfzAJUnGEmRyO72Ko-0-30" value="Add Chess&lt;br&gt;for all&lt;br&gt;pizza" style="rhombus;whiteSpace=wrap;html=1;" vertex="1" parent="WIyWlLk6GJQsqaUBKTNV-1">
          <mxGeometry x="450" y="800" width="100" height="110" as="geometry" />
        </mxCell>
        <mxCell id="fCfzAJUnGEmRyO72Ko-0-33" value="" style="endArrow=classic;html=1;rounded=0;exitX=0.25;exitY=1;exitDx=0;exitDy=0;entryX=0.5;entryY=0;entryDx=0;entryDy=0;" edge="1" parent="WIyWlLk6GJQsqaUBKTNV-1" source="fCfzAJUnGEmRyO72Ko-0-1" target="fCfzAJUnGEmRyO72Ko-0-30">
          <mxGeometry width="50" height="50" relative="1" as="geometry">
            <mxPoint x="470" y="540" as="sourcePoint" />
            <mxPoint x="520" y="490" as="targetPoint" />
            <Array as="points">
              <mxPoint x="370" y="520" />
              <mxPoint x="500" y="520" />
            </Array>
          </mxGeometry>
        </mxCell>
        <mxCell id="fCfzAJUnGEmRyO72Ko-0-34" value="" style="endArrow=classic;html=1;rounded=0;exitX=0;exitY=0.5;exitDx=0;exitDy=0;entryX=0;entryY=0;entryDx=0;entryDy=0;" edge="1" parent="WIyWlLk6GJQsqaUBKTNV-1" source="fCfzAJUnGEmRyO72Ko-0-3" target="fCfzAJUnGEmRyO72Ko-0-30">
          <mxGeometry width="50" height="50" relative="1" as="geometry">
            <mxPoint x="470" y="540" as="sourcePoint" />
            <mxPoint x="520" y="490" as="targetPoint" />
            <Array as="points">
              <mxPoint x="-100" y="310" />
              <mxPoint x="-100" y="510" />
              <mxPoint x="-100" y="800" />
              <mxPoint x="200" y="800" />
              <mxPoint x="360" y="800" />
              <mxPoint x="475" y="800" />
            </Array>
          </mxGeometry>
        </mxCell>
        <mxCell id="fCfzAJUnGEmRyO72Ko-0-35" value="" style="endArrow=classic;html=1;rounded=0;exitX=1;exitY=0.5;exitDx=0;exitDy=0;entryX=1;entryY=0;entryDx=0;entryDy=0;" edge="1" parent="WIyWlLk6GJQsqaUBKTNV-1" source="fCfzAJUnGEmRyO72Ko-0-5" target="fCfzAJUnGEmRyO72Ko-0-30">
          <mxGeometry width="50" height="50" relative="1" as="geometry">
            <mxPoint x="520" y="720" as="sourcePoint" />
            <mxPoint x="570" y="670" as="targetPoint" />
            <Array as="points">
              <mxPoint x="1090" y="310" />
              <mxPoint x="1090" y="600" />
              <mxPoint x="1090" y="800" />
              <mxPoint x="810" y="800" />
              <mxPoint x="525" y="800" />
            </Array>
          </mxGeometry>
        </mxCell>
        <mxCell id="fCfzAJUnGEmRyO72Ko-0-36" value="+$1" style="rounded=1;whiteSpace=wrap;html=1;" vertex="1" parent="WIyWlLk6GJQsqaUBKTNV-1">
          <mxGeometry x="620" y="960" width="120" height="60" as="geometry" />
        </mxCell>
        <mxCell id="fCfzAJUnGEmRyO72Ko-0-39" value="YES" style="text;html=1;align=center;verticalAlign=middle;resizable=0;points=[];autosize=1;strokeColor=none;fillColor=none;" vertex="1" parent="WIyWlLk6GJQsqaUBKTNV-1">
          <mxGeometry x="650" y="833" width="40" height="20" as="geometry" />
        </mxCell>
        <mxCell id="fCfzAJUnGEmRyO72Ko-0-40" value="Nothing Happen" style="rounded=1;whiteSpace=wrap;html=1;" vertex="1" parent="WIyWlLk6GJQsqaUBKTNV-1">
          <mxGeometry x="260" y="960" width="120" height="60" as="geometry" />
        </mxCell>
        <mxCell id="fCfzAJUnGEmRyO72Ko-0-42" value="NO" style="text;html=1;align=center;verticalAlign=middle;resizable=0;points=[];autosize=1;strokeColor=none;fillColor=none;" vertex="1" parent="WIyWlLk6GJQsqaUBKTNV-1">
          <mxGeometry x="314" y="833" width="30" height="20" as="geometry" />
        </mxCell>
        <mxCell id="fCfzAJUnGEmRyO72Ko-0-43" value="Final Price $???" style="rounded=1;whiteSpace=wrap;html=1;" vertex="1" parent="WIyWlLk6GJQsqaUBKTNV-1">
          <mxGeometry x="440" y="1169" width="120" height="60" as="geometry" />
        </mxCell>
        <mxCell id="fCfzAJUnGEmRyO72Ko-0-44" value="" style="endArrow=classic;html=1;rounded=0;exitX=0.5;exitY=1;exitDx=0;exitDy=0;entryX=1;entryY=0.5;entryDx=0;entryDy=0;" edge="1" parent="WIyWlLk6GJQsqaUBKTNV-1" source="fCfzAJUnGEmRyO72Ko-0-36" target="fCfzAJUnGEmRyO72Ko-0-43">
          <mxGeometry width="50" height="50" relative="1" as="geometry">
            <mxPoint x="520" y="1080" as="sourcePoint" />
            <mxPoint x="680" y="1210" as="targetPoint" />
            <Array as="points">
              <mxPoint x="680" y="1199" />
            </Array>
          </mxGeometry>
        </mxCell>
        <mxCell id="fCfzAJUnGEmRyO72Ko-0-45" value="" style="endArrow=classic;html=1;rounded=0;exitX=0.5;exitY=1;exitDx=0;exitDy=0;entryX=0;entryY=0.5;entryDx=0;entryDy=0;" edge="1" parent="WIyWlLk6GJQsqaUBKTNV-1" source="fCfzAJUnGEmRyO72Ko-0-40" target="fCfzAJUnGEmRyO72Ko-0-43">
          <mxGeometry width="50" height="50" relative="1" as="geometry">
            <mxPoint x="520" y="1080" as="sourcePoint" />
            <mxPoint x="320" y="1210" as="targetPoint" />
            <Array as="points">
              <mxPoint x="320" y="1199" />
            </Array>
          </mxGeometry>
        </mxCell>
        <mxCell id="fCfzAJUnGEmRyO72Ko-0-46" value="" style="endArrow=classic;html=1;rounded=0;exitX=0.5;exitY=1;exitDx=0;exitDy=0;" edge="1" parent="WIyWlLk6GJQsqaUBKTNV-1" source="fCfzAJUnGEmRyO72Ko-0-27">
          <mxGeometry width="50" height="50" relative="1" as="geometry">
            <mxPoint x="520" y="900" as="sourcePoint" />
            <mxPoint x="510" y="1230" as="targetPoint" />
            <Array as="points">
              <mxPoint x="960" y="1290" />
              <mxPoint x="710" y="1290" />
              <mxPoint x="610" y="1290" />
              <mxPoint x="510" y="1290" />
            </Array>
          </mxGeometry>
        </mxCell>
        <mxCell id="fCfzAJUnGEmRyO72Ko-0-47" value="" style="endArrow=classic;html=1;rounded=0;exitX=0;exitY=0.5;exitDx=0;exitDy=0;entryX=0.25;entryY=1;entryDx=0;entryDy=0;" edge="1" parent="WIyWlLk6GJQsqaUBKTNV-1" source="fCfzAJUnGEmRyO72Ko-0-17" target="fCfzAJUnGEmRyO72Ko-0-43">
          <mxGeometry width="50" height="50" relative="1" as="geometry">
            <mxPoint x="470" y="690" as="sourcePoint" />
            <mxPoint x="480" y="1290" as="targetPoint" />
            <Array as="points">
              <mxPoint x="290" y="710" />
              <mxPoint x="200" y="710" />
              <mxPoint x="200" y="760" />
              <mxPoint x="200" y="1290" />
              <mxPoint x="470" y="1290" />
            </Array>
          </mxGeometry>
        </mxCell>
      </root>
    </mxGraphModel>
  </diagram>
</mxfile>
